<mxfile host="Electron" modified="2024-01-25T06:58:01.445Z" agent="Mozilla/5.0 (Windows NT 10.0; Win64; x64) AppleWebKit/537.36 (KHTML, like Gecko) draw.io/22.1.21 Chrome/120.0.6099.109 Electron/28.1.0 Safari/537.36" etag="PHQpEK9k1OncwhJjYBkL" version="22.1.21" type="device">
  <diagram id="C5RBs43oDa-KdzZeNtuy" name="Page-1">
    <mxGraphModel dx="880" dy="542" grid="1" gridSize="10" guides="1" tooltips="1" connect="1" arrows="1" fold="1" page="1" pageScale="1" pageWidth="827" pageHeight="1169" math="0" shadow="0">
      <root>
        <mxCell id="WIyWlLk6GJQsqaUBKTNV-0" />
        <mxCell id="WIyWlLk6GJQsqaUBKTNV-1" parent="WIyWlLk6GJQsqaUBKTNV-0" />
        <mxCell id="XoK_gau2MEsAUCZI41HU-1" value="&lt;font style=&quot;font-size: 17px;&quot;&gt;начало&lt;/font&gt;" style="ellipse;whiteSpace=wrap;html=1;" vertex="1" parent="WIyWlLk6GJQsqaUBKTNV-1">
          <mxGeometry x="357" width="120" height="80" as="geometry" />
        </mxCell>
        <mxCell id="XoK_gau2MEsAUCZI41HU-35" style="edgeStyle=orthogonalEdgeStyle;rounded=0;orthogonalLoop=1;jettySize=auto;html=1;exitX=0.5;exitY=1;exitDx=0;exitDy=0;entryX=0.5;entryY=0;entryDx=0;entryDy=0;" edge="1" parent="WIyWlLk6GJQsqaUBKTNV-1" source="XoK_gau2MEsAUCZI41HU-3" target="XoK_gau2MEsAUCZI41HU-28">
          <mxGeometry relative="1" as="geometry" />
        </mxCell>
        <mxCell id="XoK_gau2MEsAUCZI41HU-36" style="edgeStyle=orthogonalEdgeStyle;rounded=0;orthogonalLoop=1;jettySize=auto;html=1;exitX=0.5;exitY=1;exitDx=0;exitDy=0;entryX=0.5;entryY=0;entryDx=0;entryDy=0;" edge="1" parent="WIyWlLk6GJQsqaUBKTNV-1" source="XoK_gau2MEsAUCZI41HU-3" target="XoK_gau2MEsAUCZI41HU-27">
          <mxGeometry relative="1" as="geometry" />
        </mxCell>
        <mxCell id="XoK_gau2MEsAUCZI41HU-37" style="edgeStyle=orthogonalEdgeStyle;rounded=0;orthogonalLoop=1;jettySize=auto;html=1;exitX=0.5;exitY=1;exitDx=0;exitDy=0;entryX=0.5;entryY=0;entryDx=0;entryDy=0;" edge="1" parent="WIyWlLk6GJQsqaUBKTNV-1" source="XoK_gau2MEsAUCZI41HU-3" target="XoK_gau2MEsAUCZI41HU-13">
          <mxGeometry relative="1" as="geometry" />
        </mxCell>
        <mxCell id="XoK_gau2MEsAUCZI41HU-3" value="&lt;font style=&quot;font-size: 16px;&quot;&gt;выбор действия&lt;/font&gt;" style="rhombus;whiteSpace=wrap;html=1;" vertex="1" parent="WIyWlLk6GJQsqaUBKTNV-1">
          <mxGeometry x="360" y="260" width="114" height="80" as="geometry" />
        </mxCell>
        <mxCell id="XoK_gau2MEsAUCZI41HU-13" value="&lt;font style=&quot;font-size: 17px;&quot;&gt;конец&lt;br&gt;&lt;/font&gt;" style="ellipse;whiteSpace=wrap;html=1;" vertex="1" parent="WIyWlLk6GJQsqaUBKTNV-1">
          <mxGeometry x="530" y="410" width="120" height="80" as="geometry" />
        </mxCell>
        <mxCell id="XoK_gau2MEsAUCZI41HU-40" style="edgeStyle=orthogonalEdgeStyle;rounded=0;orthogonalLoop=1;jettySize=auto;html=1;exitX=0.5;exitY=1;exitDx=0;exitDy=0;entryX=0.5;entryY=0;entryDx=0;entryDy=0;" edge="1" parent="WIyWlLk6GJQsqaUBKTNV-1" source="XoK_gau2MEsAUCZI41HU-16" target="XoK_gau2MEsAUCZI41HU-18">
          <mxGeometry relative="1" as="geometry" />
        </mxCell>
        <mxCell id="XoK_gau2MEsAUCZI41HU-16" value="&lt;span style=&quot;font-size: 17px;&quot;&gt;компьютер расставляет мины на поле&lt;/span&gt;" style="rounded=0;whiteSpace=wrap;html=1;" vertex="1" parent="WIyWlLk6GJQsqaUBKTNV-1">
          <mxGeometry x="334" y="620" width="166" height="70" as="geometry" />
        </mxCell>
        <mxCell id="XoK_gau2MEsAUCZI41HU-41" style="edgeStyle=orthogonalEdgeStyle;rounded=0;orthogonalLoop=1;jettySize=auto;html=1;exitX=0.5;exitY=1;exitDx=0;exitDy=0;entryX=0.5;entryY=0;entryDx=0;entryDy=0;" edge="1" parent="WIyWlLk6GJQsqaUBKTNV-1" source="XoK_gau2MEsAUCZI41HU-18" target="XoK_gau2MEsAUCZI41HU-19">
          <mxGeometry relative="1" as="geometry" />
        </mxCell>
        <mxCell id="XoK_gau2MEsAUCZI41HU-18" value="&lt;span style=&quot;font-size: 17px;&quot;&gt;игрок открывает клетки и &quot;помечает&quot; мины&lt;/span&gt;" style="rounded=0;whiteSpace=wrap;html=1;" vertex="1" parent="WIyWlLk6GJQsqaUBKTNV-1">
          <mxGeometry x="334" y="730" width="166" height="70" as="geometry" />
        </mxCell>
        <mxCell id="XoK_gau2MEsAUCZI41HU-42" style="edgeStyle=orthogonalEdgeStyle;rounded=0;orthogonalLoop=1;jettySize=auto;html=1;exitX=0;exitY=0.5;exitDx=0;exitDy=0;entryX=0.5;entryY=0;entryDx=0;entryDy=0;" edge="1" parent="WIyWlLk6GJQsqaUBKTNV-1" source="XoK_gau2MEsAUCZI41HU-19" target="XoK_gau2MEsAUCZI41HU-22">
          <mxGeometry relative="1" as="geometry" />
        </mxCell>
        <mxCell id="XoK_gau2MEsAUCZI41HU-43" style="edgeStyle=orthogonalEdgeStyle;rounded=0;orthogonalLoop=1;jettySize=auto;html=1;exitX=1;exitY=0.5;exitDx=0;exitDy=0;entryX=0.5;entryY=0;entryDx=0;entryDy=0;" edge="1" parent="WIyWlLk6GJQsqaUBKTNV-1" source="XoK_gau2MEsAUCZI41HU-19" target="XoK_gau2MEsAUCZI41HU-21">
          <mxGeometry relative="1" as="geometry" />
        </mxCell>
        <mxCell id="XoK_gau2MEsAUCZI41HU-19" value="&lt;font style=&quot;font-size: 16px;&quot;&gt;конец игры&lt;/font&gt;" style="rhombus;whiteSpace=wrap;html=1;" vertex="1" parent="WIyWlLk6GJQsqaUBKTNV-1">
          <mxGeometry x="360" y="830" width="114" height="80" as="geometry" />
        </mxCell>
        <mxCell id="XoK_gau2MEsAUCZI41HU-44" style="edgeStyle=orthogonalEdgeStyle;rounded=0;orthogonalLoop=1;jettySize=auto;html=1;exitX=0.5;exitY=1;exitDx=0;exitDy=0;entryX=0.5;entryY=0;entryDx=0;entryDy=0;" edge="1" parent="WIyWlLk6GJQsqaUBKTNV-1" source="XoK_gau2MEsAUCZI41HU-21" target="XoK_gau2MEsAUCZI41HU-25">
          <mxGeometry relative="1" as="geometry" />
        </mxCell>
        <mxCell id="XoK_gau2MEsAUCZI41HU-21" value="&lt;span style=&quot;font-size: 17px;&quot;&gt;победа&lt;/span&gt;" style="rounded=0;whiteSpace=wrap;html=1;" vertex="1" parent="WIyWlLk6GJQsqaUBKTNV-1">
          <mxGeometry x="477" y="920" width="196" height="70" as="geometry" />
        </mxCell>
        <mxCell id="XoK_gau2MEsAUCZI41HU-46" style="edgeStyle=orthogonalEdgeStyle;rounded=0;orthogonalLoop=1;jettySize=auto;html=1;exitX=0.5;exitY=1;exitDx=0;exitDy=0;entryX=0.5;entryY=0;entryDx=0;entryDy=0;" edge="1" parent="WIyWlLk6GJQsqaUBKTNV-1" source="XoK_gau2MEsAUCZI41HU-22" target="XoK_gau2MEsAUCZI41HU-25">
          <mxGeometry relative="1" as="geometry" />
        </mxCell>
        <mxCell id="XoK_gau2MEsAUCZI41HU-22" value="&lt;span style=&quot;font-size: 17px;&quot;&gt;проигрыш&lt;/span&gt;" style="rounded=0;whiteSpace=wrap;html=1;" vertex="1" parent="WIyWlLk6GJQsqaUBKTNV-1">
          <mxGeometry x="164" y="920" width="196" height="70" as="geometry" />
        </mxCell>
        <mxCell id="XoK_gau2MEsAUCZI41HU-25" value="&lt;font style=&quot;font-size: 16px;&quot;&gt;выбор действия&lt;/font&gt;" style="rhombus;whiteSpace=wrap;html=1;" vertex="1" parent="WIyWlLk6GJQsqaUBKTNV-1">
          <mxGeometry x="357" y="1060" width="114" height="80" as="geometry" />
        </mxCell>
        <mxCell id="XoK_gau2MEsAUCZI41HU-38" style="edgeStyle=orthogonalEdgeStyle;rounded=0;orthogonalLoop=1;jettySize=auto;html=1;exitX=0.5;exitY=1;exitDx=0;exitDy=0;" edge="1" parent="WIyWlLk6GJQsqaUBKTNV-1" source="XoK_gau2MEsAUCZI41HU-27">
          <mxGeometry relative="1" as="geometry">
            <mxPoint x="417" y="230" as="targetPoint" />
            <Array as="points">
              <mxPoint x="223" y="500" />
              <mxPoint x="120" y="500" />
              <mxPoint x="120" y="230" />
              <mxPoint x="360" y="230" />
            </Array>
          </mxGeometry>
        </mxCell>
        <mxCell id="XoK_gau2MEsAUCZI41HU-27" value="&lt;span style=&quot;font-size: 17px;&quot;&gt;выбор сложности пользователем&lt;/span&gt;" style="rounded=0;whiteSpace=wrap;html=1;" vertex="1" parent="WIyWlLk6GJQsqaUBKTNV-1">
          <mxGeometry x="140" y="410" width="166" height="70" as="geometry" />
        </mxCell>
        <mxCell id="XoK_gau2MEsAUCZI41HU-39" style="edgeStyle=orthogonalEdgeStyle;rounded=0;orthogonalLoop=1;jettySize=auto;html=1;exitX=0.5;exitY=1;exitDx=0;exitDy=0;entryX=0.5;entryY=0;entryDx=0;entryDy=0;" edge="1" parent="WIyWlLk6GJQsqaUBKTNV-1" source="XoK_gau2MEsAUCZI41HU-28" target="XoK_gau2MEsAUCZI41HU-16">
          <mxGeometry relative="1" as="geometry" />
        </mxCell>
        <mxCell id="XoK_gau2MEsAUCZI41HU-28" value="&lt;span style=&quot;font-size: 17px;&quot;&gt;начало игры&lt;/span&gt;" style="rounded=0;whiteSpace=wrap;html=1;" vertex="1" parent="WIyWlLk6GJQsqaUBKTNV-1">
          <mxGeometry x="334" y="510" width="166" height="70" as="geometry" />
        </mxCell>
        <mxCell id="XoK_gau2MEsAUCZI41HU-31" style="edgeStyle=orthogonalEdgeStyle;rounded=0;orthogonalLoop=1;jettySize=auto;html=1;exitX=0.5;exitY=1;exitDx=0;exitDy=0;entryX=0.5;entryY=0;entryDx=0;entryDy=0;" edge="1" parent="WIyWlLk6GJQsqaUBKTNV-1" source="XoK_gau2MEsAUCZI41HU-29" target="XoK_gau2MEsAUCZI41HU-3">
          <mxGeometry relative="1" as="geometry" />
        </mxCell>
        <mxCell id="XoK_gau2MEsAUCZI41HU-29" value="&lt;span style=&quot;font-size: 17px;&quot;&gt;открытие игры&lt;/span&gt;" style="rounded=0;whiteSpace=wrap;html=1;" vertex="1" parent="WIyWlLk6GJQsqaUBKTNV-1">
          <mxGeometry x="334" y="110" width="166" height="70" as="geometry" />
        </mxCell>
        <mxCell id="XoK_gau2MEsAUCZI41HU-30" value="" style="endArrow=classic;html=1;rounded=0;exitX=0.5;exitY=1;exitDx=0;exitDy=0;entryX=0.5;entryY=0;entryDx=0;entryDy=0;" edge="1" parent="WIyWlLk6GJQsqaUBKTNV-1" source="XoK_gau2MEsAUCZI41HU-1" target="XoK_gau2MEsAUCZI41HU-29">
          <mxGeometry width="50" height="50" relative="1" as="geometry">
            <mxPoint x="620" y="240" as="sourcePoint" />
            <mxPoint x="450" y="210" as="targetPoint" />
          </mxGeometry>
        </mxCell>
        <mxCell id="XoK_gau2MEsAUCZI41HU-47" value="" style="endArrow=classic;html=1;rounded=0;exitX=0.5;exitY=1;exitDx=0;exitDy=0;" edge="1" parent="WIyWlLk6GJQsqaUBKTNV-1" source="XoK_gau2MEsAUCZI41HU-25">
          <mxGeometry width="50" height="50" relative="1" as="geometry">
            <mxPoint x="540" y="1160" as="sourcePoint" />
            <mxPoint x="414" y="210" as="targetPoint" />
            <Array as="points">
              <mxPoint x="414" y="1160" />
              <mxPoint x="760" y="1160" />
              <mxPoint x="760" y="210" />
            </Array>
          </mxGeometry>
        </mxCell>
      </root>
    </mxGraphModel>
  </diagram>
</mxfile>
